
<svg version="1.1" style="font-family: Roboto; font-size: 12px;" xmlns="http://www.w3.org/2000/svg" width="650" height="400" viewBox="0 0 650 400" aria-hidden="false" aria-label="Interactive chart"><defs aria-hidden="true"><clipPath ><rect x="0" y="0" width="596" height="241" fill="none"></rect></clipPath><clipPath ><rect x="0" y="0" width="596" height="241" fill="none"></rect></clipPath></defs><rect fill="#ffffff" x="0" y="0" width="650" height="400" rx="0" ry="0" aria-hidden="true"></rect><rect fill="none" x="44" y="47" width="596" height="241" aria-hidden="true"></rect><g data-z-index="0" aria-hidden="true"></g><rect fill="none" data-z-index="1" x="44" y="47" width="596" height="241" aria-hidden="true"></rect><g data-z-index="1" aria-hidden="true"><path fill="none" stroke-dasharray="none" data-z-index="1" d="M 69.5 47 L 69.5 288" opacity="1"></path><path fill="none" stroke-dasharray="none" data-z-index="1" d="M 95.5 47 L 95.5 288" opacity="1"></path><path fill="none" stroke-dasharray="none" data-z-index="1" d="M 121.5 47 L 121.5 288" opacity="1"></path><path fill="none" stroke-dasharray="none" data-z-index="1" d="M 147.5 47 L 147.5 288" opacity="1"></path><path fill="none" stroke-dasharray="none" data-z-index="1" d="M 173.5 47 L 173.5 288" opacity="1"></path><path fill="none" stroke-dasharray="none" data-z-index="1" d="M 198.5 47 L 198.5 288" opacity="1"></path><path fill="none" stroke-dasharray="none" data-z-index="1" d="M 224.5 47 L 224.5 288" opacity="1"></path><path fill="none" stroke-dasharray="none" data-z-index="1" d="M 250.5 47 L 250.5 288" opacity="1"></path><path fill="none" stroke-dasharray="none" data-z-index="1" d="M 276.5 47 L 276.5 288" opacity="1"></path><path fill="none" stroke-dasharray="none" data-z-index="1" d="M 302.5 47 L 302.5 288" opacity="1"></path><path fill="none" stroke-dasharray="none" data-z-index="1" d="M 328.5 47 L 328.5 288" opacity="1"></path><path fill="none" stroke-dasharray="none" data-z-index="1" d="M 354.5 47 L 354.5 288" opacity="1"></path><path fill="none" stroke-dasharray="none" data-z-index="1" d="M 380.5 47 L 380.5 288" opacity="1"></path><path fill="none" stroke-dasharray="none" data-z-index="1" d="M 406.5 47 L 406.5 288" opacity="1"></path><path fill="none" stroke-dasharray="none" data-z-index="1" d="M 432.5 47 L 432.5 288" opacity="1"></path><path fill="none" stroke-dasharray="none" data-z-index="1" d="M 458.5 47 L 458.5 288" opacity="1"></path><path fill="none" stroke-dasharray="none" data-z-index="1" d="M 484.5 47 L 484.5 288" opacity="1"></path><path fill="none" stroke-dasharray="none" data-z-index="1" d="M 509.5 47 L 509.5 288" opacity="1"></path><path fill="none" stroke-dasharray="none" data-z-index="1" d="M 535.5 47 L 535.5 288" opacity="1"></path><path fill="none" stroke-dasharray="none" data-z-index="1" d="M 561.5 47 L 561.5 288" opacity="1"></path><path fill="none" stroke-dasharray="none" data-z-index="1" d="M 587.5 47 L 587.5 288" opacity="1"></path><path fill="none" stroke-dasharray="none" data-z-index="1" d="M 613.5 47 L 613.5 288" opacity="1"></path><path fill="none" stroke-dasharray="none" data-z-index="1" d="M 639.5 47 L 639.5 288" opacity="1"></path><path fill="none" stroke-dasharray="none" data-z-index="1" d="M 43.5 47 L 43.5 288" opacity="1"></path></g><g data-z-index="1" aria-hidden="true"><path fill="none" stroke="#e6e6e6" stroke-width="1" stroke-dasharray="none" data-z-index="1" d="M 44 288.5 L 640 288.5" opacity="1"></path><path fill="none" stroke="#e6e6e6" stroke-width="1" stroke-dasharray="none" data-z-index="1" d="M 44 95.5 L 640 95.5" opacity="1"></path><path fill="none" stroke="#e6e6e6" stroke-width="1" stroke-dasharray="none" data-z-index="1" d="M 44 240.5 L 640 240.5" opacity="1"></path><path fill="none" stroke="#e6e6e6" stroke-width="1" stroke-dasharray="none" data-z-index="1" d="M 44 192.5 L 640 192.5" opacity="1"></path><path fill="none" stroke="#e6e6e6" stroke-width="1" stroke-dasharray="none" data-z-index="1" d="M 44 143.5 L 640 143.5" opacity="1"></path><path fill="none" stroke="#e6e6e6" stroke-width="1" stroke-dasharray="none" data-z-index="1" d="M 44 46.5 L 640 46.5" opacity="1"></path></g><g data-z-index="2" aria-hidden="true"><path fill="none" stroke="#ccd6eb" stroke-width="1" data-z-index="7" d="M 44 288.5 L 640 288.5"></path></g><g data-z-index="2" aria-hidden="true"><path fill="none" data-z-index="7" d="M 44 47 L 44 288"></path></g><g data-z-index="3" aria-hidden="false"><g data-z-index="0.1" opacity="1" transform="translate(44,47) scale(1 1)" clip-path="url(#highcharts-ghvysoo-959-)" aria-hidden="true"><path fill="none" d="M 12.95652173913 98.328 C 12.95652173913 98.328 28.504347826086597 167.736 38.869565217391 167.736 C 49.2347826086954 167.736 54.417391304347596 113.752 64.782608695652 113.752 C 75.1478260869564 113.752 80.3304347826086 131.10399999999998 90.695652173913 131.10399999999998 C 101.06086956521581 131.10399999999998 106.24347826086719 122.23519999999928 116.60869565217 109.89599999999999 C 126.973913043474 97.55679999999927 132.15652173912602 69.40799999999999 142.52173913043 69.40799999999999 C 152.886956521738 69.40799999999999 158.069565217392 161.95199999999997 168.4347826087 173.51999999999998 C 178.800000000004 185.088 183.98260869565598 176.2192 194.34782608696 185.088 C 204.71304347826398 193.9568 209.895652173916 217.864 220.26086956522 217.864 C 230.62608695652398 217.864 235.808695652176 115.68 246.17391304348 82.904 C 256.53913043478394 50.127999999999986 261.721739130436 50.127999999999986 272.08695652174 50.127999999999986 C 282.452173913044 50.127999999999986 287.63478260869596 57.068799999999996 298 63.623999999999995 C 308.36521739130404 70.1792 313.547826086956 63.623999999999995 323.91304347826 82.904 C 334.278260869564 102.184 339.46086956521606 190.872 349.82608695652 190.872 C 360.19130434782403 190.872 365.373913043476 73.26400000000001 375.73913043478 73.26400000000001 C 386.104347826084 73.26400000000001 391.286956521736 141.12959999999998 401.65217391304 169.664 C 412.01739130434396 198.1984 417.199999999996 215.936 427.5652173913 215.936 C 437.93043478260404 215.936 443.113043478256 178.53279999999398 453.47826086956 146.52800000000002 C 463.843478260868 114.52319999999396 469.02608695652197 61.696000000000026 479.39130434783 55.912000000000006 C 489.756521739134 50.127999999999986 494.9391304347861 50.127999999999986 505.30434782609 50.127999999999986 C 515.669565217394 50.127999999999986 520.852173913046 62.467200000000005 531.21739130435 73.26400000000001 C 541.582608695654 84.0608 546.765217391306 85.98879999999998 557.13043478261 104.112 C 567.495652173914 122.23519999999999 583.04347826087 163.88 583.04347826087 163.88" data-z-index="1" stroke="#9ca3af" stroke-width="2" stroke-linejoin="round" stroke-linecap="round"></path><path fill="none" d="M 12.95652173913 98.328 C 12.95652173913 98.328 28.504347826086597 167.736 38.869565217391 167.736 C 49.2347826086954 167.736 54.417391304347596 113.752 64.782608695652 113.752 C 75.1478260869564 113.752 80.3304347826086 131.10399999999998 90.695652173913 131.10399999999998 C 101.06086956521581 131.10399999999998 106.24347826086719 122.23519999999928 116.60869565217 109.89599999999999 C 126.973913043474 97.55679999999927 132.15652173912602 69.40799999999999 142.52173913043 69.40799999999999 C 152.886956521738 69.40799999999999 158.069565217392 161.95199999999997 168.4347826087 173.51999999999998 C 178.800000000004 185.088 183.98260869565598 176.2192 194.34782608696 185.088 C 204.71304347826398 193.9568 209.895652173916 217.864 220.26086956522 217.864 C 230.62608695652398 217.864 235.808695652176 115.68 246.17391304348 82.904 C 256.53913043478394 50.127999999999986 261.721739130436 50.127999999999986 272.08695652174 50.127999999999986 C 282.452173913044 50.127999999999986 287.63478260869596 57.068799999999996 298 63.623999999999995 C 308.36521739130404 70.1792 313.547826086956 63.623999999999995 323.91304347826 82.904 C 334.278260869564 102.184 339.46086956521606 190.872 349.82608695652 190.872 C 360.19130434782403 190.872 365.373913043476 73.26400000000001 375.73913043478 73.26400000000001 C 386.104347826084 73.26400000000001 391.286956521736 141.12959999999998 401.65217391304 169.664 C 412.01739130434396 198.1984 417.199999999996 215.936 427.5652173913 215.936 C 437.93043478260404 215.936 443.113043478256 178.53279999999398 453.47826086956 146.52800000000002 C 463.843478260868 114.52319999999396 469.02608695652197 61.696000000000026 479.39130434783 55.912000000000006 C 489.756521739134 50.127999999999986 494.9391304347861 50.127999999999986 505.30434782609 50.127999999999986 C 515.669565217394 50.127999999999986 520.852173913046 62.467200000000005 531.21739130435 73.26400000000001 C 541.582608695654 84.0608 546.765217391306 85.98879999999998 557.13043478261 104.112 C 567.495652173914 122.23519999999999 583.04347826087 163.88 583.04347826087 163.88" data-z-index="2" stroke-linecap="round" stroke-linejoin="round" stroke="rgba(192,192,192,0.0001)" stroke-width="22" style="cursor: pointer;"></path></g><g data-z-index="0.1" opacity="1" transform="translate(44,47) scale(1 1)" clip-path="none" style="cursor: pointer;" aria-hidden="false"><path fill="#9ca3af" d="M 375 73.26400000000001 A 0 0 0 1 1 375 73.26400000000001 Z" data-z-index="-1" fill-opacity="0.25" visibility="hidden"></path><path fill="#9ca3af" d="M 12 102.328 A 4 4 0 1 1 12.003999999333336 102.32799800000016 Z" opacity="1" tabindex="-1" role="img" aria-label="Category 1, 74." style="outline: none;"></path><path fill="#9ca3af" d="M 38 171.736 A 4 4 0 1 1 38.00399999933334 171.73599800000017 Z" opacity="1" tabindex="-1" role="img" aria-label="Category 2, 38." style="outline: none;"></path><path fill="#9ca3af" d="M 64 117.752 A 4 4 0 1 1 64.00399999933333 117.75199800000016 Z" opacity="1" tabindex="-1" role="img" aria-label="Category 3, 66." style="outline: none;"></path><path fill="#9ca3af" d="M 90 135.10399999999998 A 4 4 0 1 1 90.00399999933333 135.10399800000016 Z" opacity="1" tabindex="-1" role="img" aria-label="Category 4, 57." style="outline: none;"></path><path fill="#9ca3af" d="M 116 113.89599999999999 A 4 4 0 1 1 116.00399999933333 113.89599800000015 Z" opacity="1" tabindex="-1" role="img" aria-label="Category 5, 68." style="outline: none;"></path><path fill="#9ca3af" d="M 142 73.40799999999999 A 4 4 0 1 1 142.00399999933333 73.40799800000015 Z" opacity="1" tabindex="-1" role="img" aria-label="Category 6, 89." style="outline: none;"></path><path fill="#9ca3af" d="M 168 177.51999999999998 A 4 4 0 1 1 168.00399999933333 177.51999800000016 Z" opacity="1" tabindex="-1" role="img" aria-label="Category 7, 35." style="outline: none;"></path><path fill="#9ca3af" d="M 194 189.088 A 4 4 0 1 1 194.00399999933333 189.08799800000017 Z" opacity="1" tabindex="-1" role="img" aria-label="Category 8, 29." style="outline: none;"></path><path fill="#9ca3af" d="M 220 221.864 A 4 4 0 1 1 220.00399999933333 221.86399800000018 Z" opacity="1" tabindex="-1" role="img" aria-label="Category 9, 12." style="outline: none;"></path><path fill="#9ca3af" d="M 246 86.904 A 4 4 0 1 1 246.00399999933333 86.90399800000016 Z" opacity="1" tabindex="-1" role="img" aria-label="Category 10, 82." style="outline: none;"></path><path fill="#9ca3af" d="M 272 54.127999999999986 A 4 4 0 1 1 272.00399999933336 54.127998000000154 Z" opacity="1" tabindex="-1" role="img" aria-label="Category 11, 99." style="outline: none;"></path><path fill="#9ca3af" d="M 298 67.624 A 4 4 0 1 1 298.00399999933336 67.62399800000016 Z" opacity="1" tabindex="-1" role="img" aria-label="Category 12, 92." style="outline: none;"></path><path fill="#9ca3af" d="M 323 86.904 A 4 4 0 1 1 323.00399999933336 86.90399800000016 Z" opacity="1" tabindex="-1" role="img" aria-label="Category 13, 82." style="outline: none;"></path><path fill="#9ca3af" d="M 349 194.872 A 4 4 0 1 1 349.00399999933336 194.8719980000002 Z" opacity="1" tabindex="-1" role="img" aria-label="Category 14, 26." style="outline: none;"></path><path fill="#9ca3af" d="M 375 77.26400000000001 A 4 4 0 1 1 375.00399999933336 77.26399800000017 Z" opacity="1" tabindex="-1" role="img" aria-label="Category 15, 87." style="outline: none;" stroke-width="0.000007595533848860081"></path><path fill="#9ca3af" d="M 401 173.664 A 4 4 0 1 1 401.00399999933336 173.66399800000016 Z" opacity="1" tabindex="-1" role="img" aria-label="Category 16, 37." style="outline: none;"></path><path fill="#9ca3af" d="M 427 219.936 A 4 4 0 1 1 427.00399999933336 219.93599800000018 Z" opacity="1" tabindex="-1" role="img" aria-label="Category 17, 13." style="outline: none;"></path><path fill="#9ca3af" d="M 453 150.52800000000002 A 4 4 0 1 1 453.00399999933336 150.5279980000002 Z" opacity="1" tabindex="-1" role="img" aria-label="Category 18, 49." style="outline: none;"></path><path fill="#9ca3af" d="M 479 59.912000000000006 A 4 4 0 1 1 479.00399999933336 59.911998000000175 Z" opacity="1" tabindex="-1" role="img" aria-label="Category 19, 96." style="outline: none;"></path><path fill="#9ca3af" d="M 505 54.127999999999986 A 4 4 0 1 1 505.00399999933336 54.127998000000154 Z" opacity="1" tabindex="-1" role="img" aria-label="Category 20, 99." style="outline: none;"></path><path fill="#9ca3af" d="M 531 77.26400000000001 A 4 4 0 1 1 531.0039999993334 77.26399800000017 Z" opacity="1" tabindex="-1" role="img" aria-label="Category 21, 87." style="outline: none;"></path><path fill="#9ca3af" d="M 557 108.112 A 4 4 0 1 1 557.0039999993334 108.11199800000016 Z" opacity="1" tabindex="-1" role="img" aria-label="Category 22, 71." style="outline: none;"></path><path fill="#9ca3af" d="M 583 167.88 A 4 4 0 1 1 583.0039999993334 167.87999800000017 Z" opacity="1" tabindex="-1" role="img" aria-label="Category 23, 40." style="outline: none;"></path></g></g><g data-z-index="3" aria-hidden="true"><g stroke-linecap="round" style="cursor: pointer;" transform="translate(616,10)"><title>Chart context menu</title><rect fill="#ffffff" x="0.5" y="0.5" width="24" height="22" rx="2" ry="2" stroke="none" stroke-width="1"></rect><path fill="#666666" d="M 6 6.5 L 20 6.5 M 6 11.5 L 20 11.5 M 6 16.5 L 20 16.5" data-z-index="1" stroke="#666666" stroke-width="3"></path><text font-family='Roboto-Regular,Roboto' x="0" data-z-index="1" y="15.5" style="color: rgb(51, 51, 51); font-weight: normal; fill: rgb(51, 51, 51);"></text></g></g><text font-family='Roboto-Regular,Roboto' x="325" text-anchor="middle" data-z-index="4" style="color: rgb(51, 51, 51); font-size: 18px; fill: rgb(51, 51, 51);" y="24" aria-hidden="true">Chart title</text><text font-family='Roboto-Regular,Roboto' x="325" text-anchor="middle" data-z-index="4" style="color: rgb(102, 102, 102); fill: rgb(102, 102, 102);" y="46" aria-hidden="true"></text><text font-family='Roboto-Regular,Roboto' x="10" text-anchor="start" data-z-index="4" style="color: rgb(102, 102, 102); fill: rgb(102, 102, 102);" y="397" aria-hidden="true"></text><g data-z-index="7" aria-hidden="true" transform="translate(307,359)"><rect fill="none" rx="0" ry="0" x="0" y="0" width="37" height="26"></rect><g data-z-index="1"><g><g data-z-index="1" transform="translate(8,3)"><path fill="none" d="M 0 11 L 16 11" stroke="#9ca3af" stroke-width="2"></path><path fill="#9ca3af" d="M 8 15 A 4 4 0 1 1 8.003999999333336 14.999998000000167 Z" opacity="1"></path><text font-family='Roboto-Regular,Roboto' x="21" text-anchor="start" data-z-index="2" y="15" style="color: rgb(51, 51, 51); cursor: pointer; font-size: 12px; font-weight: bold; fill: rgb(51, 51, 51);"></text></g></g></g></g><g data-z-index="7" aria-hidden="true"><text font-family='Roboto-Regular,Roboto' x="59.54924660348023" text-anchor="end" transform="translate(0,0) rotate(-45 59.54924660348023 304)" style="color: rgb(102, 102, 102); cursor: default; font-size: 11px; fill: rgb(102, 102, 102);" y="304" opacity="1">Category 1</text><text font-family='Roboto-Regular,Roboto' x="85.46229008174123" text-anchor="end" transform="translate(0,0) rotate(-45 85.46229008174123 304)" style="color: rgb(102, 102, 102); cursor: default; font-size: 11px; fill: rgb(102, 102, 102);" y="304" opacity="1">Category 2</text><text font-family='Roboto-Regular,Roboto' x="111.37533356000023" text-anchor="end" transform="translate(0,0) rotate(-45 111.37533356000023 304)" style="color: rgb(102, 102, 102); cursor: default; font-size: 11px; fill: rgb(102, 102, 102);" y="304" opacity="1">Category 3</text><text font-family='Roboto-Regular,Roboto' x="137.28837703826025" text-anchor="end" transform="translate(0,0) rotate(-45 137.28837703826025 304)" style="color: rgb(102, 102, 102); cursor: default; font-size: 11px; fill: rgb(102, 102, 102);" y="304" opacity="1">Category 4</text><text font-family='Roboto-Regular,Roboto' x="163.20142051652024" text-anchor="end" transform="translate(0,0) rotate(-45 163.20142051652024 304)" style="color: rgb(102, 102, 102); cursor: default; font-size: 11px; fill: rgb(102, 102, 102);" y="304" opacity="1">Category 5</text><text font-family='Roboto-Regular,Roboto' x="189.11446399478024" text-anchor="end" transform="translate(0,0) rotate(-45 189.11446399478024 304)" style="color: rgb(102, 102, 102); cursor: default; font-size: 11px; fill: rgb(102, 102, 102);" y="304" opacity="1">Category 6</text><text font-family='Roboto-Regular,Roboto' x="215.02750747305024" text-anchor="end" transform="translate(0,0) rotate(-45 215.02750747305024 304)" style="color: rgb(102, 102, 102); cursor: default; font-size: 11px; fill: rgb(102, 102, 102);" y="304" opacity="1">Category 7</text><text font-family='Roboto-Regular,Roboto' x="240.94055095131026" text-anchor="end" transform="translate(0,0) rotate(-45 240.94055095131026 304)" style="color: rgb(102, 102, 102); cursor: default; font-size: 11px; fill: rgb(102, 102, 102);" y="304" opacity="1">Category 8</text><text font-family='Roboto-Regular,Roboto' x="266.8535944295702" text-anchor="end" transform="translate(0,0) rotate(-45 266.8535944295702 304)" style="color: rgb(102, 102, 102); cursor: default; font-size: 11px; fill: rgb(102, 102, 102);" y="304" opacity="1">Category 9</text><text font-family='Roboto-Regular,Roboto' x="292.7666379078302" text-anchor="end" transform="translate(0,0) rotate(-45 292.7666379078302 304)" style="color: rgb(102, 102, 102); cursor: default; font-size: 11px; fill: rgb(102, 102, 102);" y="304" opacity="1">Category 10</text><text font-family='Roboto-Regular,Roboto' x="318.67968138609024" text-anchor="end" transform="translate(0,0) rotate(-45 318.67968138609024 304)" style="color: rgb(102, 102, 102); cursor: default; font-size: 11px; fill: rgb(102, 102, 102);" y="304" opacity="1">Category 11</text><text font-family='Roboto-Regular,Roboto' x="344.5927248643502" text-anchor="end" transform="translate(0,0) rotate(-45 344.5927248643502 304)" style="color: rgb(102, 102, 102); cursor: default; font-size: 11px; fill: rgb(102, 102, 102);" y="304" opacity="1">Category 12</text><text font-family='Roboto-Regular,Roboto' x="370.5057683426102" text-anchor="end" transform="translate(0,0) rotate(-45 370.5057683426102 304)" style="color: rgb(102, 102, 102); cursor: default; font-size: 11px; fill: rgb(102, 102, 102);" y="304" opacity="1">Category 13</text><text font-family='Roboto-Regular,Roboto' x="396.41881182087025" text-anchor="end" transform="translate(0,0) rotate(-45 396.41881182087025 304)" style="color: rgb(102, 102, 102); cursor: default; font-size: 11px; fill: rgb(102, 102, 102);" y="304" opacity="1">Category 14</text><text font-family='Roboto-Regular,Roboto' x="422.3318552991302" text-anchor="end" transform="translate(0,0) rotate(-45 422.3318552991302 304)" style="color: rgb(102, 102, 102); cursor: default; font-size: 11px; fill: rgb(102, 102, 102);" y="304" opacity="1">Category 15</text><text font-family='Roboto-Regular,Roboto' x="448.24489877739023" text-anchor="end" transform="translate(0,0) rotate(-45 448.24489877739023 304)" style="color: rgb(102, 102, 102); cursor: default; font-size: 11px; fill: rgb(102, 102, 102);" y="304" opacity="1">Category 16</text><text font-family='Roboto-Regular,Roboto' x="474.1579422556502" text-anchor="end" transform="translate(0,0) rotate(-45 474.1579422556502 304)" style="color: rgb(102, 102, 102); cursor: default; font-size: 11px; fill: rgb(102, 102, 102);" y="304" opacity="1">Category 17</text><text font-family='Roboto-Regular,Roboto' x="500.0709857339203" text-anchor="end" transform="translate(0,0) rotate(-45 500.0709857339203 304)" style="color: rgb(102, 102, 102); cursor: default; font-size: 11px; fill: rgb(102, 102, 102);" y="304" opacity="1">Category 18</text><text font-family='Roboto-Regular,Roboto' x="525.9840292121803" text-anchor="end" transform="translate(0,0) rotate(-45 525.9840292121803 304)" style="color: rgb(102, 102, 102); cursor: default; font-size: 11px; fill: rgb(102, 102, 102);" y="304" opacity="1">Category 19</text><text font-family='Roboto-Regular,Roboto' x="551.8970726904403" text-anchor="end" transform="translate(0,0) rotate(-45 551.8970726904403 304)" style="color: rgb(102, 102, 102); cursor: default; font-size: 11px; fill: rgb(102, 102, 102);" y="304" opacity="1">Category 20</text><text font-family='Roboto-Regular,Roboto' x="577.8101161687002" text-anchor="end" transform="translate(0,0) rotate(-45 577.8101161687002 304)" style="color: rgb(102, 102, 102); cursor: default; font-size: 11px; fill: rgb(102, 102, 102);" y="304" opacity="1">Category 21</text><text font-family='Roboto-Regular,Roboto' x="603.7231596469603" text-anchor="end" transform="translate(0,0) rotate(-45 603.7231596469603 304)" style="color: rgb(102, 102, 102); cursor: default; font-size: 11px; fill: rgb(102, 102, 102);" y="304" opacity="1">Category 22</text><text font-family='Roboto-Regular,Roboto' x="629.6362031252203" text-anchor="end" transform="translate(0,0) rotate(-45 629.6362031252203 304)" style="color: rgb(102, 102, 102); cursor: default; font-size: 11px; fill: rgb(102, 102, 102);" y="304" opacity="1">Category 23</text></g><g data-z-index="7" aria-hidden="true"><text font-family='Roboto-Regular,Roboto' x="29" text-anchor="end" transform="translate(0,0)" style="color: rgb(102, 102, 102); cursor: default; font-size: 11px; fill: rgb(102, 102, 102);" y="293" opacity="1">0</text><text font-family='Roboto-Regular,Roboto' x="29" text-anchor="end" transform="translate(0,0)" style="color: rgb(102, 102, 102); cursor: default; font-size: 11px; fill: rgb(102, 102, 102);" y="100" opacity="1">100</text><text font-family='Roboto-Regular,Roboto' x="29" text-anchor="end" transform="translate(0,0)" style="color: rgb(102, 102, 102); cursor: default; font-size: 11px; fill: rgb(102, 102, 102);" y="244" opacity="1">25</text><text font-family='Roboto-Regular,Roboto' x="29" text-anchor="end" transform="translate(0,0)" style="color: rgb(102, 102, 102); cursor: default; font-size: 11px; fill: rgb(102, 102, 102);" y="196" opacity="1">50</text><text font-family='Roboto-Regular,Roboto' x="29" text-anchor="end" transform="translate(0,0)" style="color: rgb(102, 102, 102); cursor: default; font-size: 11px; fill: rgb(102, 102, 102);" y="148" opacity="1">75</text><text font-family='Roboto-Regular,Roboto' x="29" text-anchor="end" transform="translate(0,0)" style="color: rgb(102, 102, 102); cursor: default; font-size: 11px; fill: rgb(102, 102, 102);" y="52" opacity="1">125</text></g></svg>